<?xml version="1.0" encoding="utf-8"?>
<!-- Generator: Adobe Illustrator 15.0.0, SVG Export Plug-In . SVG Version: 6.00 Build 0)  -->
<!DOCTYPE svg PUBLIC "-//W3C//DTD SVG 1.1//EN" "http://www.w3.org/Graphics/SVG/1.1/DTD/svg11.dtd">
<svg version="1.1" id="Ebene_1" xmlns="http://www.w3.org/2000/svg" xmlns:xlink="http://www.w3.org/1999/xlink" x="0px" y="0px"
	 width="183px" height="66px" viewBox="0 0 183 66" enable-background="new 0 0 183 66" xml:space="preserve">
<g>
	<linearGradient id="SVGID_1_" gradientUnits="userSpaceOnUse" x1="9.6978" y1="56.3301" x2="56.0878" y2="9.94">
		<stop  offset="0" style="stop-color:#07B9A9"/>
		<stop  offset="1" style="stop-color:#7E4099"/>
	</linearGradient>
	<path fill="url(#SVGID_1_)" d="M59.664,13.516c-0.609,2.771-3.076,4.848-6.03,4.848c-3.411,0-6.175-2.766-6.175-6.176
		c0-2.931,2.044-5.381,4.784-6.014C46.831,2.292,40.202,0,33.032,0c-18.229,0-33,14.771-33,33c0,11.491,5.872,21.602,14.775,27.51
		c0.043-1.848,0.632-3.432,1.796-4.734c1.208-1.352,2.875-2.408,5.002-3.17c-1.156-0.525-2.075-1.242-2.758-2.146
		c-0.683-0.906-1.023-2.109-1.023-3.604c0-0.58,0.104-1.178,0.315-1.795c0.208-0.617,0.532-1.234,0.966-1.852
		c0.434-0.615,0.97-1.201,1.615-1.754c0.643-0.551,1.385-1.049,2.226-1.496c-1.97-1.104-3.519-2.568-4.649-4.395
		c-1.13-1.823-1.694-3.958-1.694-6.401c0-1.971,0.381-3.743,1.143-5.32c0.761-1.575,1.817-2.927,3.17-4.057
		c1.353-1.13,2.968-2.136,4.847-2.74C27.64,16.443,29.696,16,31.93,16h0.111h0.002c2.903,0,4.326,0.163,7.246,1.52
		c1.334,0.555,2.517,1.33,3.545,2.189c1.353,1.13,2.411,2.586,3.172,4.161c0.724,1.496,1.091,3.13,1.128,5.13h-0.051
		c0.002,0,0.017,0.129,0.017,0.232c0,1.971-0.383,3.714-1.143,5.304c-0.764,1.592-1.813,2.929-3.153,4.06
		c-1.339,1.127-2.935,1.988-4.786,2.592c-1.854,0.605-3.881,0.903-6.088,0.903c-1.813,0-3.509-0.2-5.083-0.593
		c-0.788,0.473-1.385,0.989-1.793,1.554c-0.407,0.568-0.609,1.124-0.609,1.675c0,0.92,0.385,1.602,1.162,2.047
		c0.775,0.449,1.786,0.77,3.032,0.967c1.249,0.197,2.679,0.32,4.296,0.375c1.614,0.051,3.255,0.137,4.923,0.254
		c1.668,0.119,3.311,0.33,4.926,0.633c1.615,0.301,3.047,0.787,4.294,1.457c1.247,0.668,2.259,1.59,3.034,2.758
		s1.162,2.686,1.162,4.549c0,1.031-0.17,2.043-0.472,3.037C59.958,54.939,66.032,44.684,66.032,33
		C66.032,25.709,63.665,18.976,59.664,13.516z"/>
	<linearGradient id="SVGID_2_" gradientUnits="userSpaceOnUse" x1="26.0317" y1="66.1982" x2="39.4128" y2="52.8172">
		<stop  offset="0" style="stop-color:#07B9A9"/>
		<stop  offset="1" style="stop-color:#7E4099"/>
	</linearGradient>
	<path fill="url(#SVGID_2_)" d="M41.248,55.461c-0.907-0.328-1.964-0.564-3.172-0.709s-2.475-0.256-3.801-0.336
		c-1.328-0.076-2.687-0.148-4.079-0.215s-2.732-0.189-4.019-0.373c-1.366,0.682-2.488,1.51-3.369,2.48s-1.319,2.115-1.319,3.428
		c0,0.84,0.217,1.629,0.649,2.365c0.434,0.734,1.104,1.371,2.011,1.91c0.904,0.537,2.046,0.959,3.428,1.262
		c1.379,0.299,3.026,0.453,4.943,0.453c1.891,0,3.56-0.166,5.004-0.492c1.445-0.332,2.66-0.789,3.645-1.381
		c0.985-0.592,1.733-1.293,2.245-2.109c0.513-0.813,0.771-1.705,0.771-2.678c0-0.945-0.264-1.701-0.789-2.264
		C42.869,56.238,42.154,55.791,41.248,55.461z"/>
</g>
<path fill="#FFFFFF" d="M47.458,12.187c0,3.411,2.764,6.176,6.175,6.176c2.954,0,5.421-2.076,6.03-4.848
	c-2.069-2.823-4.577-5.301-7.421-7.342C49.502,6.806,47.458,9.256,47.458,12.187z"/>
<path fill="#FFFFFF" d="M50.112,53.217c-0.774-1.168-1.787-2.09-3.034-2.758c-1.247-0.67-2.679-1.156-4.294-1.457
	c-1.615-0.303-3.257-0.514-4.926-0.633c-1.668-0.117-3.309-0.203-4.923-0.254c-1.617-0.055-3.047-0.178-4.296-0.375
	c-1.247-0.197-2.257-0.518-3.032-0.967c-0.776-0.445-1.162-1.127-1.162-2.047c0-0.551,0.202-1.107,0.609-1.676
	c0.408-0.564,1.006-1.082,1.793-1.555c1.574,0.393,3.271,0.592,5.083,0.592c2.207,0,4.234-0.303,6.088-0.908
	c1.851-0.604,3.447-1.473,4.786-2.6c1.34-1.131,2.389-2.486,3.153-4.078c0.759-1.589,1.143-3.299,1.143-5.27
	c0-0.104-0.015-0.232-0.017-0.232h0.051c-0.037-2-0.404-3.599-1.128-5.095c-0.762-1.575-1.819-2.962-3.172-4.092
	c-1.028-0.859-2.211-1.721-3.545-2.276C36.369,16.18,34.945,16,32.042,16h-0.002H31.93c-2.234,0-4.29,0.443-6.166,1.047
	c-1.879,0.604-3.494,1.54-4.847,2.67s-2.409,2.517-3.17,4.092c-0.762,1.577-1.143,3.366-1.143,5.337c0,2.442,0.564,4.587,1.694,6.41
	c1.13,1.826,2.679,3.296,4.649,4.399c-0.841,0.447-1.583,0.946-2.226,1.497c-0.645,0.553-1.181,1.14-1.615,1.755
	c-0.434,0.617-0.757,1.234-0.966,1.852c-0.211,0.617-0.315,1.217-0.315,1.797c0,1.494,0.34,2.697,1.023,3.604
	c0.683,0.904,1.602,1.621,2.758,2.146c-2.128,0.762-3.794,1.818-5.002,3.17c-1.164,1.303-1.752,2.887-1.796,4.734
	C20.03,63.977,26.293,66,33.032,66c6.545,0,12.639-1.912,17.769-5.197c0.302-0.994,0.472-2.006,0.472-3.037
	C51.273,55.902,50.886,54.385,50.112,53.217z M43.414,61.744c-0.512,0.816-1.26,1.518-2.245,2.109
	c-0.984,0.592-2.2,1.049-3.645,1.381c-1.445,0.326-3.113,0.492-5.004,0.492c-1.917,0-3.564-0.154-4.943-0.453
	c-1.381-0.303-2.523-0.725-3.428-1.262c-0.907-0.539-1.577-1.176-2.011-1.91c-0.432-0.736-0.649-1.525-0.649-2.365
	c0-1.313,0.438-2.457,1.319-3.428s2.002-1.799,3.369-2.48c1.287,0.184,2.627,0.307,4.019,0.373s2.751,0.139,4.079,0.215
	c1.326,0.08,2.592,0.191,3.801,0.336s2.266,0.381,3.172,0.709c0.906,0.33,1.621,0.777,2.147,1.342
	c0.525,0.563,0.789,1.318,0.789,2.264C44.184,60.039,43.927,60.932,43.414,61.744z"/>
<g>
	<defs>
		<rect id="SVGID_3_" x="69.093" y="19.622" width="113.875" height="29.256"/>
	</defs>
	<clipPath id="SVGID_4_">
		<use xlink:href="#SVGID_3_"  overflow="visible"/>
	</clipPath>
	<path clip-path="url(#SVGID_4_)" fill="#FFFFFF" d="M180.487,26.936c-0.202,0-0.382,0.059-0.541,0.175
		c-0.159,0.117-0.276,0.265-0.35,0.446l-3.959,9.683c-0.096,0.244-0.187,0.49-0.271,0.739c-0.085,0.249-0.165,0.501-0.239,0.755
		c-0.053-0.243-0.118-0.49-0.197-0.739c-0.08-0.249-0.162-0.495-0.247-0.738l-4.103-9.699c-0.063-0.159-0.17-0.303-0.317-0.431
		c-0.149-0.127-0.355-0.19-0.62-0.19h-2.703l6.63,15.137l-2.957,6.44h2.305c0.308,0,0.541-0.064,0.7-0.191s0.286-0.308,0.381-0.541
		l8.969-20.845H180.487z M161.82,43.091V29.448h4.437V27.19h-4.531v-1.368c0-0.667,0.074-1.226,0.222-1.677
		c0.149-0.45,0.361-0.813,0.636-1.089c0.276-0.276,0.61-0.473,1.002-0.588c0.393-0.117,0.827-0.176,1.305-0.176
		c0.201,0,0.389-0.003,0.563-0.008c0.175-0.006,0.324-0.023,0.446-0.056c0.121-0.032,0.219-0.082,0.294-0.151
		c0.074-0.068,0.116-0.172,0.127-0.31l0.063-1.559c-0.614-0.212-1.287-0.317-2.02-0.317c-0.869,0-1.651,0.13-2.345,0.389
		c-0.694,0.26-1.288,0.643-1.781,1.146c-0.493,0.504-0.872,1.115-1.137,1.837c-0.265,0.721-0.397,1.542-0.397,2.464v1.463h-2.512
		v1.288c0,0.233,0.076,0.411,0.23,0.532c0.153,0.122,0.352,0.21,0.596,0.263l1.686,0.206v13.611H161.82z M153.552,21.108
		c-0.116-0.26-0.272-0.487-0.469-0.684c-0.195-0.196-0.427-0.35-0.69-0.461c-0.267-0.111-0.541-0.167-0.827-0.167
		s-0.557,0.056-0.811,0.167c-0.256,0.111-0.48,0.265-0.676,0.461c-0.197,0.196-0.351,0.424-0.462,0.684
		c-0.11,0.26-0.167,0.538-0.167,0.835c0,0.286,0.057,0.559,0.167,0.819c0.111,0.26,0.265,0.486,0.462,0.683
		c0.195,0.197,0.42,0.351,0.676,0.462c0.254,0.111,0.524,0.166,0.811,0.166s0.561-0.055,0.827-0.166
		c0.264-0.111,0.495-0.265,0.69-0.462c0.196-0.196,0.353-0.423,0.469-0.683c0.117-0.261,0.176-0.533,0.176-0.819
		C153.728,21.646,153.669,21.368,153.552,21.108 M150.038,43.091h3.1V26.937h-3.1V43.091z M135.204,19.621h-3.101v23.47h3.101
		V31.244c0.594-0.646,1.237-1.157,1.932-1.534c0.695-0.376,1.439-0.563,2.234-0.563c1.092,0,1.902,0.32,2.432,0.961
		c0.531,0.642,0.795,1.54,0.795,2.696v10.287h3.117V32.804c0-0.912-0.117-1.744-0.35-2.497c-0.232-0.752-0.578-1.396-1.033-1.933
		c-0.455-0.534-1.021-0.95-1.693-1.248c-0.674-0.296-1.455-0.444-2.346-0.444c-1.07,0-2.017,0.212-2.838,0.636
		c-0.822,0.424-1.572,0.981-2.25,1.67V19.621z M116.888,27.557c-0.106-0.414-0.377-0.621-0.812-0.621h-1.86v21.577h3.101V41.5
		c0.541,0.572,1.155,1.018,1.845,1.335c0.689,0.318,1.516,0.478,2.48,0.478c1.08,0,2.054-0.214,2.918-0.645
		c0.863-0.429,1.595-1.02,2.193-1.771c0.6-0.753,1.061-1.641,1.383-2.664c0.324-1.022,0.486-2.133,0.486-3.331
		c0-1.335-0.146-2.517-0.438-3.545c-0.292-1.028-0.702-1.892-1.232-2.592c-0.529-0.7-1.169-1.23-1.916-1.59
		c-0.748-0.36-1.582-0.541-2.504-0.541c-0.572,0-1.111,0.066-1.613,0.198c-0.504,0.134-0.979,0.318-1.424,0.558
		c-0.445,0.237-0.861,0.523-1.248,0.857c-0.388,0.334-0.75,0.703-1.09,1.105L116.888,27.557z M117.316,31.468
		c0.562-0.742,1.174-1.314,1.837-1.718c0.662-0.402,1.443-0.604,2.346-0.604c0.614,0,1.166,0.108,1.653,0.326
		c0.487,0.217,0.897,0.556,1.231,1.017s0.588,1.055,0.764,1.781c0.175,0.726,0.262,1.603,0.262,2.631
		c0,1.962-0.389,3.453-1.168,4.476c-0.779,1.023-1.879,1.535-3.299,1.535c-0.732,0-1.393-0.133-1.98-0.397
		c-0.588-0.266-1.137-0.731-1.646-1.399V31.468z M98.476,30.195c0.095,0.159,0.22,0.297,0.374,0.413
		c0.153,0.117,0.336,0.175,0.548,0.175c0.266,0,0.521-0.084,0.771-0.254c0.248-0.17,0.541-0.357,0.875-0.564
		c0.334-0.206,0.73-0.395,1.191-0.564c0.461-0.169,1.031-0.254,1.71-0.254c1.006,0,1.771,0.302,2.289,0.906
		c0.519,0.604,0.778,1.516,0.778,2.734v1.177c-1.834,0.043-3.379,0.212-4.635,0.509s-2.272,0.679-3.052,1.145
		c-0.78,0.466-1.341,0.994-1.687,1.582c-0.344,0.588-0.516,1.2-0.516,1.836c0,0.722,0.119,1.353,0.357,1.893
		c0.238,0.541,0.564,0.991,0.979,1.352c0.412,0.36,0.897,0.628,1.455,0.803c0.555,0.176,1.152,0.263,1.789,0.263
		c0.604,0,1.154-0.054,1.652-0.159c0.498-0.106,0.967-0.262,1.406-0.469c0.441-0.206,0.861-0.455,1.265-0.747
		s0.812-0.628,1.226-1.011l0.334,1.415c0.094,0.276,0.222,0.465,0.381,0.565c0.158,0.101,0.392,0.151,0.699,0.151h1.383V32.787
		c0-0.912-0.125-1.744-0.373-2.497c-0.25-0.752-0.617-1.398-1.105-1.938c-0.486-0.541-1.086-0.962-1.796-1.265
		c-0.711-0.303-1.526-0.453-2.449-0.453c-1.261,0-2.419,0.213-3.474,0.636c-1.055,0.424-2.033,1.065-2.934,1.924L98.476,30.195z
		 M107.013,39.1c-0.307,0.329-0.619,0.62-0.938,0.874c-0.318,0.255-0.652,0.47-1.002,0.644c-0.349,0.175-0.723,0.311-1.121,0.406
		c-0.396,0.095-0.834,0.143-1.311,0.143c-0.361,0-0.695-0.042-1.002-0.127c-0.309-0.085-0.575-0.22-0.803-0.405
		c-0.229-0.186-0.408-0.425-0.541-0.716c-0.133-0.292-0.199-0.639-0.199-1.042c0-0.423,0.121-0.808,0.365-1.151
		c0.244-0.345,0.643-0.645,1.193-0.899c0.551-0.254,1.266-0.458,2.146-0.611c0.879-0.153,1.951-0.252,3.211-0.295V39.1z
		 M89.667,27.763c-0.054-0.308-0.141-0.522-0.263-0.645c-0.122-0.121-0.353-0.183-0.69-0.183h-1.781v16.155h3.1V32.978
		c0.202-0.52,0.419-0.983,0.652-1.391c0.232-0.408,0.501-0.753,0.803-1.033c0.303-0.281,0.645-0.493,1.025-0.637
		c0.382-0.143,0.822-0.215,1.32-0.215c0.34,0,0.657,0.029,0.953,0.088c0.297,0.059,0.52,0.087,0.668,0.087
		c0.276,0,0.451-0.143,0.525-0.429l0.207-2.338c-0.234-0.159-0.508-0.278-0.819-0.356c-0.313-0.08-0.644-0.12-0.993-0.12
		c-1.029,0-1.908,0.302-2.64,0.906s-1.356,1.437-1.877,2.496L89.667,27.763z M79.618,27.54c-1.007-0.583-2.21-0.875-3.609-0.875
		c-0.901,0-1.731,0.122-2.488,0.366c-0.758,0.244-1.41,0.594-1.956,1.049c-0.546,0.456-0.973,1.002-1.28,1.639
		c-0.308,0.636-0.461,1.351-0.461,2.146c0,0.986,0.228,1.849,0.684,2.584c0.455,0.737,1.081,1.328,1.876,1.773
		c-0.34,0.18-0.639,0.382-0.899,0.604c-0.259,0.224-0.477,0.459-0.652,0.708c-0.174,0.249-0.304,0.498-0.389,0.747
		s-0.127,0.491-0.127,0.725c0,0.604,0.137,1.089,0.413,1.453c0.276,0.366,0.647,0.655,1.113,0.867
		c-0.858,0.309-1.532,0.734-2.019,1.28c-0.488,0.546-0.732,1.211-0.732,1.995c0,0.562,0.146,1.103,0.438,1.622
		c0.291,0.519,0.731,0.975,1.319,1.368c0.589,0.392,1.325,0.703,2.21,0.938c0.885,0.233,1.927,0.349,3.125,0.349
		c1.198,0,2.268-0.152,3.212-0.461c0.942-0.307,1.743-0.715,2.401-1.224c0.656-0.509,1.158-1.092,1.502-1.749
		s0.517-1.336,0.517-2.035c0-0.753-0.157-1.365-0.47-1.837c-0.313-0.471-0.721-0.842-1.225-1.113
		c-0.503-0.27-1.08-0.466-1.732-0.588s-1.314-0.207-1.987-0.254c-0.673-0.048-1.336-0.082-1.988-0.104
		c-0.652-0.021-1.229-0.071-1.733-0.151c-0.503-0.079-0.911-0.209-1.224-0.389c-0.313-0.181-0.469-0.456-0.469-0.827
		c0-0.223,0.082-0.448,0.246-0.676c0.165-0.229,0.406-0.438,0.724-0.628c0.636,0.158,1.32,0.238,2.051,0.238
		c0.89,0,1.709-0.122,2.456-0.365c0.748-0.244,1.392-0.595,1.932-1.05c0.541-0.456,0.965-1.005,1.271-1.646
		c0.309-0.641,0.461-1.36,0.461-2.155c0-0.401-0.041-0.787-0.127-1.151c-0.084-0.366-0.201-0.714-0.35-1.042l1.734-0.255
		c0.477-0.096,0.715-0.334,0.715-0.716v-1.16H79.618z M80.645,45.015c-0.207,0.328-0.509,0.611-0.907,0.85
		c-0.397,0.239-0.887,0.424-1.47,0.558c-0.583,0.132-1.256,0.198-2.02,0.198c-0.773,0-1.439-0.061-1.995-0.183
		c-0.557-0.122-1.018-0.292-1.383-0.509c-0.366-0.217-0.636-0.476-0.811-0.771c-0.175-0.297-0.263-0.615-0.263-0.954
		c0-0.529,0.178-0.99,0.533-1.383c0.355-0.392,0.808-0.726,1.36-1.002c0.519,0.074,1.059,0.125,1.621,0.151
		c0.562,0.025,1.111,0.056,1.646,0.087c0.535,0.032,1.047,0.077,1.534,0.135c0.488,0.059,0.915,0.154,1.28,0.287
		c0.366,0.132,0.655,0.312,0.866,0.54c0.213,0.228,0.318,0.533,0.318,0.915C80.954,44.325,80.851,44.686,80.645,45.015
		 M74.57,34.799c-0.419-0.154-0.769-0.366-1.049-0.637c-0.281-0.27-0.493-0.594-0.636-0.97c-0.144-0.376-0.215-0.792-0.215-1.248
		c0-0.933,0.283-1.677,0.851-2.234c0.567-0.557,1.396-0.835,2.488-0.835c1.102,0,1.937,0.278,2.504,0.835
		c0.567,0.558,0.851,1.302,0.851,2.234c0,0.456-0.072,0.874-0.215,1.256s-0.355,0.708-0.636,0.979
		c-0.281,0.27-0.631,0.479-1.049,0.628c-0.419,0.148-0.904,0.223-1.455,0.223C75.468,35.029,74.989,34.952,74.57,34.799"/>
</g>
</svg>
